<?xml version="1.0" encoding="utf-8"?>
<!-- Generator: Adobe Illustrator 24.3.0, SVG Export Plug-In . SVG Version: 6.00 Build 0)  -->
<svg version="1.1" id="Layer_1" xmlns="http://www.w3.org/2000/svg" xmlns:xlink="http://www.w3.org/1999/xlink" x="0px" y="0px"
	 viewBox="0 0 20 20" style="enable-background:new 0 0 20 20;" xml:space="preserve">
<style type="text/css">
	.st0{fill:#B3124C;}
</style>
<path class="st0" d="M10,0C4.48,0,0,4.48,0,10c0,5.52,4.48,10,10,10s10-4.48,10-10C20,4.48,15.52,0,10,0z M14.64,6.8
	c-0.15,1.58-0.8,5.42-1.13,7.19c-0.14,0.75-0.42,1-0.68,1.03c-0.58,0.05-1.02-0.38-1.58-0.75c-0.88-0.58-1.38-0.94-2.23-1.5
	c-0.99-0.65-0.35-1.01,0.22-1.59C9.39,11.03,11.95,8.7,12,8.49c0.007-0.032,0.006-0.065-0.003-0.096
	c-0.009-0.031-0.025-0.06-0.047-0.084c-0.06-0.05-0.14-0.03-0.21-0.02c-0.09,0.02-1.49,0.95-4.22,2.79c-0.4,0.27-0.76,0.41-1.08,0.4
	c-0.36-0.01-1.04-0.2-1.55-0.37c-0.63-0.2-1.12-0.31-1.08-0.66c0.02-0.18,0.27-0.36,0.74-0.55c2.92-1.27,4.86-2.11,5.83-2.51
	c2.78-1.16,3.35-1.36,3.73-1.36c0.08,0,0.27,0.02,0.39,0.12c0.1,0.08,0.13,0.19,0.14,0.27C14.63,6.48,14.65,6.66,14.64,6.8z"/>
</svg>
