<?xml version="1.0" encoding="utf-8"?>
<!-- Generator: Adobe Illustrator 24.3.0, SVG Export Plug-In . SVG Version: 6.00 Build 0)  -->
<svg version="1.1" id="Layer_1" xmlns="http://www.w3.org/2000/svg" xmlns:xlink="http://www.w3.org/1999/xlink" x="0px" y="0px"
	 viewBox="0 0 20.999 16.004" style="enable-background:new 0 0 20.999 16.004;" xml:space="preserve">
<style type="text/css">
	.st0{fill:#B3124C;}
</style>
<path class="st0" d="M17.768,1.33c-1.33-0.62-2.77-1.07-4.27-1.33c-0.013,0-0.026,0.002-0.038,0.007
	c-0.012,0.005-0.023,0.013-0.032,0.023c-0.18,0.33-0.39,0.76-0.53,1.09c-1.591-0.24-3.209-0.24-4.8,0
	c-0.14-0.34-0.35-0.76-0.54-1.09C7.548,0.01,7.518,0,7.488,0c-1.5,0.26-2.93,0.71-4.27,1.33c-0.01,0-0.02,0.01-0.03,0.02
	c-2.72,4.07-3.47,8.03-3.1,11.95c0,0.02,0.01,0.04,0.03,0.05c1.8,1.32,3.53,2.12,5.24,2.65c0.03,0.01,0.06,0,0.07-0.02
	c0.4-0.55,0.76-1.13,1.07-1.74c0.02-0.04,0-0.08-0.04-0.09c-0.57-0.22-1.11-0.48-1.64-0.78c-0.04-0.02-0.04-0.08-0.01-0.11
	c0.11-0.08,0.22-0.17,0.33-0.25c0.02-0.02,0.05-0.02,0.07-0.01c3.44,1.57,7.15,1.57,10.55,0c0.02-0.01,0.05-0.01,0.07,0.01
	c0.11,0.09,0.22,0.17,0.33,0.26c0.04,0.03,0.04,0.09-0.01,0.11c-0.52,0.31-1.07,0.56-1.64,0.78c-0.04,0.01-0.05,0.06-0.04,0.09
	c0.32,0.61,0.68,1.19,1.07,1.74c0.03,0.01,0.06,0.02,0.09,0.01c1.72-0.53,3.45-1.33,5.25-2.65c0.02-0.01,0.03-0.03,0.03-0.05
	c0.44-4.53-0.73-8.46-3.1-11.95C17.798,1.34,17.788,1.33,17.768,1.33z M7.018,10.91c-1.03,0-1.89-0.95-1.89-2.12
	s0.84-2.12,1.89-2.12c1.06,0,1.9,0.96,1.89,2.12C8.908,9.96,8.068,10.91,7.018,10.91z M13.988,10.91c-1.03,0-1.89-0.95-1.89-2.12
	s0.84-2.12,1.89-2.12c1.06,0,1.9,0.96,1.89,2.12C15.878,9.96,15.048,10.91,13.988,10.91z"/>
</svg>
