<?xml version="1.0" encoding="utf-8"?>
<!-- Generator: Adobe Illustrator 24.3.0, SVG Export Plug-In . SVG Version: 6.00 Build 0)  -->
<svg version="1.1" id="Layer_1" xmlns="http://www.w3.org/2000/svg" xmlns:xlink="http://www.w3.org/1999/xlink" x="0px" y="0px"
	 viewBox="0 0 72.623 55.348" style="enable-background:new 0 0 72.623 55.348;" xml:space="preserve">
<style type="text/css">
	.st0{fill:#9206CB;}
</style>
<path class="st0" d="M61.448,4.6c-4.6-2.144-9.58-3.7-14.767-4.6c-0.046-0.001-0.091,0.007-0.133,0.025
	c-0.042,0.018-0.079,0.045-0.11,0.079c-0.623,1.141-1.349,2.628-1.833,3.77c-5.502-0.83-11.098-0.83-16.6,0
	c-0.484-1.176-1.21-2.628-1.868-3.77C26.104,0.035,26,0,25.897,0c-5.188,0.899-10.133,2.455-14.767,4.6
	c-0.035,0-0.069,0.035-0.104,0.069c-9.407,14.075-12,27.77-10.721,41.327c0,0.069,0.035,0.138,0.104,0.173
	c6.225,4.565,12.208,7.332,18.122,9.165c0.104,0.035,0.208,0,0.242-0.069c1.383-1.902,2.628-3.908,3.701-6.017
	c0.069-0.138,0-0.277-0.138-0.311c-1.971-0.761-3.839-1.66-5.672-2.697c-0.138-0.069-0.138-0.277-0.035-0.38
	c0.38-0.277,0.761-0.588,1.141-0.865c0.069-0.069,0.173-0.069,0.242-0.035c11.897,5.43,24.727,5.43,36.485,0
	c0.069-0.035,0.173-0.035,0.242,0.035c0.38,0.311,0.761,0.588,1.141,0.899c0.138,0.104,0.138,0.311-0.035,0.38
	c-1.798,1.072-3.7,1.937-5.672,2.697c-0.138,0.035-0.173,0.208-0.138,0.311c1.107,2.11,2.352,4.116,3.7,6.018
	c0.104,0.035,0.208,0.069,0.311,0.035c5.948-1.833,11.931-4.6,18.156-9.165c0.069-0.035,0.104-0.104,0.104-0.173
	c1.522-15.666-2.524-29.258-10.721-41.327C61.552,4.634,61.517,4.6,61.448,4.6z M24.271,37.731c-3.562,0-6.536-3.285-6.536-7.332
	c0-4.046,2.905-7.332,6.536-7.332c3.666,0,6.571,3.32,6.536,7.332C30.807,34.445,27.902,37.731,24.271,37.731z M48.376,37.731
	c-3.562,0-6.536-3.285-6.536-7.332c0-4.046,2.905-7.332,6.536-7.332c3.666,0,6.571,3.32,6.536,7.332
	C54.912,34.445,52.042,37.731,48.376,37.731z"/>
</svg>
