<?xml version="1.0" encoding="utf-8"?>
<!-- Generator: Adobe Illustrator 24.3.0, SVG Export Plug-In . SVG Version: 6.00 Build 0)  -->
<svg version="1.1" id="Layer_1" xmlns="http://www.w3.org/2000/svg" xmlns:xlink="http://www.w3.org/1999/xlink" x="0px" y="0px"
	 viewBox="0 0 480.211 204" style="enable-background:new 0 0 480.211 204;" xml:space="preserve">
<style type="text/css">
	.st0{fill:#FD287E;}
	.st1{fill:#FFFFFF;}
	.st2{fill:#25BFD5;}
	.st3{fill:#E0CC17;}
</style>
<path class="st0" d="M151.936,77.624c7.375-7.39,7.375-19.371,0-26.761c-7.374-7.39-19.331-7.39-26.706,0
	c-7.375,7.39-7.375,19.371,0,26.761C132.605,85.014,144.562,85.014,151.936,77.624z"/>
<path class="st1" d="M223.254,0v63.652c0,10.035-8.155,19.353-18.026,19.353c-10.873,0-19.457-9.032-19.457-19.927l0.286-26.808
	H175.9v26.808c0,16.2,13.162,29.389,29.328,29.389c15.308,0,27.612-12.472,27.612-27.668V0H223.254z"/>
<path class="st1" d="M255.443,35.553h-10.014v57.2h10.014V35.553z"/>
<path class="st1" d="M309.951,92.61h-41.345V35.696h41.345c15.881,0,28.757,12.902,28.757,28.815
	C338.708,80.424,325.832,92.61,309.951,92.61z M278.191,82.862h31.76c10.587,0,19.171-7.741,19.171-18.35
	c0-10.609-8.584-19.21-19.171-19.21h-31.76V82.862z"/>
<path class="st1" d="M221.251,171.601h11.302l-28.47-56.627l-28.327,56.627h11.303l17.024-34.263L221.251,171.601z"/>
<path class="st0" d="M204.083,137.338l-17.024,34.263h34.192L204.083,137.338z"/>
<path class="st1" d="M240.994,171.601v-56.484h9.443l23.319,45.445l22.891-45.301h9.728v56.913h-9.299v-36.269l-17.454,35.696
	H268.32l-17.74-35.123v35.266C250.58,171.744,241.137,171.744,240.994,171.601z"/>
<path class="st1" d="M328.979,124.292h47.212v-9.175h-56.654v56.484h56.654v-9.605h-47.212V124.292z"/>
<path class="st0" d="M376.191,124.292h-47.212v37.704h47.212V124.292z"/>
<path class="st1" d="M170.749,171.601l-5.007-9.605l-12.161-23.511h-33.477v9.462h27.754l7.011,13.905H124.11
	c-10.015,0-19.314-8.171-19.314-18.063c0-10.895,9.013-19.497,19.886-19.497l40.487,0.287l4.721-10.035v-0.143l-14.02-27.812
	c6.867-5.161,11.302-13.476,11.302-22.651c0-15.77-12.733-28.528-28.47-28.528s-28.47,12.759-28.47,28.528
	s12.733,28.528,28.47,28.528c3.148,0,6.152-0.574,9.013-1.434l12.161,23.511h-35.194c-16.167,0-29.329,13.189-29.329,29.389
	c0,15.339,12.447,27.668,27.612,27.668h36.768L176.042,204h11.302L170.749,171.601z M138.559,83.148
	c-10.301,0-18.741-8.458-18.741-18.923s8.44-18.923,18.884-18.923s18.885,8.458,18.885,18.923c0,5.304-2.289,10.178-5.866,13.619
	l-7.01-14.049h-10.73l9.728,18.637C141.85,82.862,140.276,83.148,138.559,83.148z"/>
<path class="st1" d="M97.929,63.938c-3.005-2.724-7.01-5.018-11.445-5.018H60.016c-4.149,0-7.01-2.867-7.01-6.881
	c0-4.157,3.29-6.881,7.439-6.881h37.34l-0.143-9.318H60.445c-9.156,0-16.596,6.881-16.596,15.913c0,2.867,0.286,5.734,1.574,8.028
	c2.861,5.161,8.87,8.602,15.165,8.602h23.463l2.861,0.143c4.149,0,7.01,3.441,7.01,7.455c0,4.014-3.434,7.025-7.583,7.025h-69.53
	V93.04h69.673c9.299,0,16.881-7.455,16.881-16.63C103.365,71.393,101.219,66.949,97.929,63.938z"/>
<path class="st1" d="M409.811,138.485H350.01v9.462h59.801V138.485z"/>
<path class="st2" d="M460.011,68.4h2.1c0.35-2.15,1.3-4.5,2.9-7.05c3.2-5.05,9.65-10,15.2-11.15v-2.1c-2.75-0.6-5.45-1.85-8.05-3.7
	c-5.3-3.75-9.2-9.35-10.05-14.4h-2.1c-0.5,2.65-1.65,5.2-3.45,7.8c-3.55,5.15-9.1,8.95-14.75,10.3v2.1c2.85,0.6,5.75,2,8.6,4.15
	C456.211,58.7,459.261,64.1,460.011,68.4z"/>
<path class="st3" d="M28.515,182.719l1.406-1.56c-1.362-1.7-2.471-3.979-3.293-6.875c-1.607-5.758-0.963-13.863,1.9-18.755
	l-1.559-1.406c-2.287,1.64-5.024,2.808-8.139,3.499c-6.334,1.425-13.105,0.57-17.424-2.181L0,157
	c1.633,2.147,2.756,4.708,3.482,7.786c1.447,6.086,0.552,12.752-2.23,17.852l1.559,1.406c2.354-1.714,5.336-2.93,8.842-3.606
	C18.767,179.044,24.82,180.396,28.515,182.719z"/>
</svg>
