<?xml version="1.0" encoding="utf-8"?>
<!-- Generator: Adobe Illustrator 24.3.0, SVG Export Plug-In . SVG Version: 6.00 Build 0)  -->
<svg version="1.1" id="Layer_1" xmlns="http://www.w3.org/2000/svg" xmlns:xlink="http://www.w3.org/1999/xlink" x="0px" y="0px"
	 viewBox="0 0 30.106 268.49" style="enable-background:new 0 0 30.106 268.49;" xml:space="preserve">
<style type="text/css">
	.st0{fill:#FFFFFF;}
	.st1{fill:#D9D9D9;}
	.st2{fill:#FFFFFF;fill-opacity:0.5;}
	.st3{opacity:0.2;}
</style>
<g>
	<path class="st0" d="M2,21.321L2,21.321c1.105,0,2,0.895,2,2v186c0,1.105-0.895,2-2,2l0,0c-1.105,0-2-0.895-2-2v-186
		C0,22.216,0.895,21.321,2,21.321z"/>
</g>
<path class="st0" d="M2,21.321L2,21.321c1.105,0,2,0.895,2,2v186c0,1.105-0.895,2-2,2l0,0c-1.105,0-2-0.895-2-2v-186
	C0,22.216,0.895,21.321,2,21.321z"/>
<circle class="st1" cx="1.5" cy="4.821" r="1.5"/>
<path class="st2" d="M10.524,10.49c-0.786-0.003-1.457-0.21-2.013-0.621C7.954,9.458,7.528,8.859,7.233,8.074
	C6.938,7.288,6.79,6.342,6.79,5.235c0-1.104,0.147-2.047,0.442-2.829c0.298-0.782,0.726-1.379,1.283-1.79
	C9.076,0.205,9.745,0,10.524,0c0.779,0,1.447,0.207,2.004,0.621c0.557,0.411,0.983,1.008,1.278,1.79
	c0.298,0.779,0.447,1.72,0.447,2.824c0,1.11-0.147,2.058-0.442,2.844c-0.295,0.782-0.721,1.38-1.278,1.795
	C11.976,10.285,11.306,10.49,10.524,10.49z M10.524,9.163c0.689,0,1.228-0.336,1.616-1.009c0.391-0.673,0.587-1.646,0.587-2.918
	c0-0.845-0.089-1.559-0.268-2.143c-0.176-0.587-0.429-1.031-0.761-1.332c-0.328-0.305-0.719-0.457-1.173-0.457
	c-0.686,0-1.225,0.338-1.616,1.014C8.517,2.993,8.32,3.966,8.317,5.235c0,0.848,0.088,1.566,0.264,2.153
	c0.179,0.583,0.432,1.026,0.761,1.327C9.669,9.014,10.063,9.163,10.524,9.163z M19.879,0.139v10.182h-1.541V1.68h-0.06l-2.436,1.591
	V1.8l2.54-1.661H19.879z"/>
<circle class="st1" cx="1.5" cy="222.821" r="1.5"/>
<path class="st2" d="M10.524,228.49c-0.786-0.003-1.457-0.21-2.013-0.621c-0.557-0.411-0.983-1.01-1.278-1.795
	c-0.295-0.786-0.442-1.732-0.442-2.839c0-1.104,0.147-2.047,0.442-2.829c0.298-0.782,0.726-1.379,1.283-1.79
	c0.56-0.411,1.23-0.616,2.009-0.616c0.779,0,1.447,0.207,2.004,0.621c0.557,0.411,0.983,1.008,1.278,1.79
	c0.298,0.779,0.447,1.72,0.447,2.824c0,1.11-0.147,2.058-0.442,2.844c-0.295,0.782-0.721,1.38-1.278,1.795
	C11.976,228.285,11.306,228.49,10.524,228.49z M10.524,227.163c0.689,0,1.228-0.337,1.616-1.01c0.391-0.672,0.587-1.645,0.587-2.918
	c0-0.845-0.089-1.559-0.268-2.143c-0.176-0.586-0.429-1.03-0.761-1.332c-0.328-0.305-0.719-0.457-1.173-0.457
	c-0.686,0-1.225,0.338-1.616,1.014c-0.391,0.676-0.588,1.649-0.592,2.918c0,0.849,0.088,1.566,0.264,2.153
	c0.179,0.583,0.432,1.026,0.761,1.327C9.669,227.013,10.063,227.163,10.524,227.163z M19.561,228.46
	c-0.683,0-1.293-0.117-1.83-0.353c-0.534-0.235-0.956-0.562-1.268-0.979c-0.308-0.421-0.474-0.908-0.497-1.462h1.561
	c0.02,0.302,0.121,0.564,0.303,0.786c0.186,0.218,0.428,0.387,0.726,0.507c0.298,0.119,0.63,0.179,0.994,0.179
	c0.401,0,0.756-0.07,1.064-0.209c0.312-0.139,0.555-0.333,0.731-0.582c0.176-0.252,0.264-0.542,0.264-0.87
	c0-0.341-0.088-0.641-0.264-0.9c-0.172-0.261-0.426-0.467-0.761-0.616c-0.331-0.149-0.733-0.224-1.203-0.224h-0.86v-1.253h0.86
	c0.378,0,0.709-0.068,0.994-0.203c0.288-0.136,0.514-0.325,0.676-0.567c0.162-0.246,0.244-0.532,0.244-0.86
	c0-0.315-0.071-0.589-0.214-0.821c-0.139-0.235-0.338-0.419-0.597-0.551c-0.255-0.133-0.557-0.199-0.905-0.199
	c-0.331,0-0.641,0.061-0.93,0.184c-0.285,0.119-0.517,0.291-0.696,0.517c-0.179,0.222-0.275,0.489-0.288,0.8h-1.487
	c0.017-0.55,0.179-1.034,0.487-1.452c0.311-0.417,0.722-0.744,1.233-0.979c0.51-0.235,1.077-0.353,1.7-0.353
	c0.653,0,1.216,0.128,1.69,0.383c0.477,0.252,0.845,0.588,1.104,1.009c0.262,0.421,0.391,0.882,0.388,1.382
	c0.003,0.57-0.156,1.054-0.477,1.452c-0.318,0.398-0.742,0.664-1.273,0.8v0.08c0.676,0.103,1.2,0.371,1.571,0.805
	c0.374,0.434,0.56,0.973,0.557,1.616c0.003,0.56-0.153,1.062-0.467,1.506c-0.312,0.444-0.737,0.794-1.278,1.049
	C20.875,228.334,20.257,228.46,19.561,228.46z"/>
<g class="st3">
	<circle class="st1" cx="1.5" cy="242.821" r="1.5"/>
	<path class="st2" d="M10.524,248.49c-0.786-0.003-1.457-0.21-2.013-0.621c-0.557-0.411-0.983-1.01-1.278-1.795
		c-0.295-0.786-0.442-1.732-0.442-2.839c0-1.104,0.147-2.047,0.442-2.829c0.298-0.782,0.726-1.379,1.283-1.79
		c0.56-0.411,1.23-0.616,2.009-0.616c0.779,0,1.447,0.207,2.004,0.621c0.557,0.411,0.983,1.008,1.278,1.79
		c0.298,0.779,0.447,1.72,0.447,2.824c0,1.11-0.147,2.058-0.442,2.844c-0.295,0.782-0.721,1.38-1.278,1.795
		C11.976,248.285,11.306,248.49,10.524,248.49z M10.524,247.163c0.689,0,1.228-0.337,1.616-1.01
		c0.391-0.672,0.587-1.645,0.587-2.918c0-0.845-0.089-1.559-0.268-2.143c-0.176-0.586-0.429-1.03-0.761-1.332
		c-0.328-0.305-0.719-0.457-1.173-0.457c-0.686,0-1.225,0.338-1.616,1.014c-0.391,0.676-0.588,1.649-0.592,2.918
		c0,0.849,0.088,1.566,0.264,2.153c0.179,0.583,0.432,1.026,0.761,1.327C9.669,247.013,10.063,247.163,10.524,247.163z
		 M15.803,246.332v-1.243l4.4-6.95h0.979v1.83H20.56l-3.147,4.981v0.08h6.031v1.302H15.803z M20.63,248.321v-2.366l0.01-0.567
		v-7.249h1.457v10.182H20.63z"/>
</g>
<g class="st3">
	<circle class="st1" cx="1.5" cy="262.821" r="1.5"/>
	<path class="st2" d="M10.524,268.49c-0.786-0.003-1.457-0.21-2.013-0.621c-0.557-0.411-0.983-1.01-1.278-1.795
		c-0.295-0.786-0.442-1.732-0.442-2.839c0-1.104,0.147-2.047,0.442-2.829c0.298-0.782,0.726-1.379,1.283-1.79
		c0.56-0.411,1.23-0.616,2.009-0.616c0.779,0,1.447,0.207,2.004,0.621c0.557,0.411,0.983,1.008,1.278,1.79
		c0.298,0.779,0.447,1.72,0.447,2.824c0,1.11-0.147,2.058-0.442,2.844c-0.295,0.782-0.721,1.38-1.278,1.795
		C11.976,268.285,11.306,268.49,10.524,268.49z M10.524,267.163c0.689,0,1.228-0.337,1.616-1.01
		c0.391-0.672,0.587-1.645,0.587-2.918c0-0.845-0.089-1.559-0.268-2.143c-0.176-0.586-0.429-1.03-0.761-1.332
		c-0.328-0.305-0.719-0.457-1.173-0.457c-0.686,0-1.225,0.338-1.616,1.014c-0.391,0.676-0.588,1.649-0.592,2.918
		c0,0.849,0.088,1.566,0.264,2.153c0.179,0.583,0.432,1.026,0.761,1.327C9.669,267.013,10.063,267.163,10.524,267.163z
		 M19.377,268.46c-0.623,0-1.183-0.119-1.68-0.358c-0.494-0.242-0.888-0.573-1.183-0.994c-0.295-0.421-0.452-0.902-0.472-1.442
		h1.491c0.036,0.438,0.23,0.797,0.582,1.079c0.351,0.282,0.772,0.423,1.263,0.423c0.391,0,0.737-0.09,1.039-0.269
		c0.305-0.182,0.543-0.432,0.716-0.751c0.176-0.318,0.264-0.681,0.264-1.088c0-0.415-0.09-0.784-0.268-1.109
		c-0.179-0.325-0.426-0.58-0.741-0.766c-0.311-0.185-0.67-0.28-1.074-0.283c-0.308,0-0.618,0.053-0.93,0.159
		c-0.312,0.106-0.563,0.245-0.756,0.418l-1.407-0.209l0.572-5.131h5.598v1.318h-4.32l-0.323,2.848h0.06
		c0.199-0.192,0.462-0.353,0.791-0.482c0.331-0.129,0.686-0.194,1.064-0.194c0.62,0,1.172,0.148,1.656,0.443
		c0.487,0.295,0.87,0.697,1.149,1.208c0.282,0.507,0.421,1.09,0.418,1.75c0.003,0.659-0.146,1.248-0.448,1.765
		c-0.298,0.517-0.713,0.924-1.243,1.223C20.665,268.313,20.06,268.46,19.377,268.46z"/>
</g>
<path class="st0" d="M16.17,60.464c-0.898-0.004-1.665-0.241-2.301-0.71c-0.636-0.47-1.123-1.153-1.46-2.051
	s-0.506-1.979-0.506-3.244c0-1.261,0.169-2.339,0.506-3.233c0.341-0.894,0.83-1.576,1.466-2.045c0.64-0.47,1.405-0.705,2.295-0.705
	c0.89,0,1.653,0.237,2.29,0.71c0.636,0.47,1.123,1.151,1.46,2.045c0.341,0.89,0.511,1.966,0.511,3.227
	c0,1.269-0.169,2.352-0.506,3.25c-0.337,0.894-0.824,1.578-1.46,2.051C17.83,60.23,17.064,60.464,16.17,60.464z M16.17,58.947
	c0.788,0,1.403-0.384,1.847-1.153c0.447-0.769,0.67-1.881,0.67-3.335c0-0.966-0.102-1.782-0.307-2.449
	c-0.201-0.67-0.49-1.178-0.869-1.523c-0.375-0.348-0.822-0.523-1.341-0.523c-0.784,0-1.4,0.386-1.847,1.159
	c-0.447,0.773-0.672,1.884-0.676,3.335c0,0.97,0.1,1.79,0.301,2.46c0.205,0.667,0.494,1.172,0.869,1.517
	C15.193,58.777,15.644,58.947,16.17,58.947z M22.447,60.271v-1.273l3.938-4.08c0.421-0.443,0.767-0.831,1.04-1.165
	c0.277-0.337,0.483-0.657,0.619-0.96c0.136-0.303,0.205-0.625,0.205-0.966c0-0.386-0.091-0.72-0.273-1
	c-0.182-0.284-0.43-0.502-0.744-0.653c-0.314-0.155-0.669-0.233-1.062-0.233c-0.417,0-0.78,0.085-1.091,0.256
	c-0.311,0.17-0.549,0.411-0.716,0.722s-0.25,0.674-0.25,1.091h-1.676c0-0.708,0.163-1.328,0.489-1.858
	c0.326-0.53,0.773-0.941,1.341-1.233c0.568-0.295,1.214-0.443,1.938-0.443c0.731,0,1.375,0.146,1.932,0.438
	c0.561,0.288,0.998,0.682,1.312,1.182c0.314,0.496,0.472,1.057,0.472,1.682c0,0.432-0.081,0.854-0.244,1.267
	c-0.159,0.413-0.438,0.873-0.835,1.381c-0.398,0.504-0.951,1.116-1.659,1.835l-2.312,2.42v0.085h5.239v1.506H22.447z"/>
</svg>
