<svg width="90" height="47" viewBox="0 0 90 47" fill="none" xmlns="http://www.w3.org/2000/svg">
<path d="M30.9448 17.7766C32.6337 16.0842 32.6337 13.3404 30.9448 11.648C29.2559 9.95564 26.5177 9.95564 24.8288 11.648C23.1399 13.3404 23.1399 16.0842 24.8288 17.7766C26.5177 19.4689 29.2559 19.4689 30.9448 17.7766Z" fill="#FD287E"/>
<path d="M47.2771 0V14.5767C47.2771 16.8748 45.4096 19.0088 43.149 19.0088C40.659 19.0088 38.6932 16.9405 38.6932 14.4453L38.7587 8.30608H36.4325V14.4453C36.4325 18.1552 39.4467 21.1756 43.149 21.1756C46.6546 21.1756 49.4722 18.3193 49.4722 14.8393V0H47.2771Z" fill="white"/>
<path d="M54.6487 8.14194H52.3552V21.2412H54.6487V8.14194Z" fill="white"/>
<path d="M67.1314 21.2084H57.6629V8.17476H67.1314C70.7681 8.17476 73.7168 11.1295 73.7168 14.7737C73.7168 18.4178 70.7681 21.2084 67.1314 21.2084ZM59.858 18.9759H67.1314C69.5559 18.9759 71.5217 17.2031 71.5217 14.7737C71.5217 12.3442 69.5559 10.3744 67.1314 10.3744H59.858V18.9759Z" fill="white"/>
<path d="M46.8184 39.2979H49.4067L42.8868 26.3299L36.3997 39.2979H38.988L42.8868 31.4514L46.8184 39.2979Z" fill="white"/>
<path d="M42.8868 31.4514L38.988 39.2979H46.8184L42.8868 31.4514Z" fill="#FD287E"/>
<path d="M51.3397 39.2979V26.3628H53.5021L58.8425 36.77L64.0845 26.3956H66.3124V39.4292H64.1828V31.1232L60.1857 39.2979H57.5975L53.5348 31.2545V39.3308C53.5348 39.3308 51.3725 39.3308 51.3397 39.2979Z" fill="white"/>
<path d="M71.4889 28.4639H82.3007V26.3628H69.3266V39.2979H82.3007V37.0983H71.4889V28.4639Z" fill="white"/>
<path d="M82.3007 28.4639H71.4889V37.0983H82.3007V28.4639Z" fill="#FD287E"/>
<path d="M35.253 39.2979L34.1063 37.0983L31.3214 31.7141H23.6549V33.8809H30.0109L31.6163 37.0654H24.5722C22.2788 37.0654 20.1492 35.1941 20.1492 32.9288C20.1492 30.4337 22.2133 28.4639 24.7033 28.4639L33.9752 28.5295L35.0564 26.2314V26.1986L31.8456 19.8295C33.4183 18.6476 34.4339 16.7435 34.4339 14.6423C34.4339 11.031 31.518 8.10908 27.9141 8.10908C24.3101 8.10908 21.3942 11.031 21.3942 14.6423C21.3942 18.2537 24.3101 21.1756 27.9141 21.1756C28.6348 21.1756 29.3229 21.0442 29.9781 20.8472L32.763 26.2314H24.7033C21.0011 26.2314 17.9869 29.2518 17.9869 32.9616C17.9869 36.4745 20.8372 39.2979 24.3101 39.2979H32.7302L36.4652 46.7176H39.0535L35.253 39.2979ZM27.8813 19.0416C25.5224 19.0416 23.5893 17.1046 23.5893 14.708C23.5893 12.3114 25.5224 10.3744 27.9141 10.3744C30.3058 10.3744 32.2388 12.3114 32.2388 14.708C32.2388 15.9227 31.7146 17.0389 30.8955 17.8269L29.2901 14.6095H26.8329L29.0608 18.8774C28.6348 18.9759 28.2745 19.0416 27.8813 19.0416Z" fill="white"/>
<path d="M18.5766 14.6423C17.8886 14.0186 16.9712 13.4933 15.9556 13.4933H9.89443C8.94431 13.4933 8.28904 12.8367 8.28904 11.9174C8.28904 10.9653 9.04259 10.3416 9.99272 10.3416H18.5439L18.5111 8.20758H9.99272C7.89589 8.20758 6.19221 9.78344 6.19221 11.8518C6.19221 12.5084 6.25774 13.165 6.5526 13.6903C7.20786 14.8721 8.58391 15.6601 10.0255 15.6601H15.3986L16.0539 15.6929C17.004 15.6929 17.6593 16.4808 17.6593 17.4001C17.6593 18.3193 16.873 19.0088 15.9228 19.0088H0V21.3069H15.9556C18.0852 21.3069 19.8216 19.5997 19.8216 17.4986C19.8216 16.3495 19.3302 15.3318 18.5766 14.6423Z" fill="white"/>
<path d="M90 31.7141H76.305V33.8809H90V31.7141Z" fill="white"/>
</svg>
