<?xml version="1.0" encoding="utf-8"?>
<!-- Generator: Adobe Illustrator 24.3.0, SVG Export Plug-In . SVG Version: 6.00 Build 0)  -->
<svg version="1.1" id="Layer_1" xmlns="http://www.w3.org/2000/svg" xmlns:xlink="http://www.w3.org/1999/xlink" x="0px" y="0px"
	 viewBox="0 0 69.167 69.167" style="enable-background:new 0 0 69.167 69.167;" xml:space="preserve">
<style type="text/css">
	.st0{fill:#9206CB;}
</style>
<path class="st0" d="M34.583,0C15.493,0,0,15.493,0,34.583s15.493,34.583,34.583,34.583s34.583-15.493,34.583-34.583
	S53.673,0,34.583,0z M50.63,23.517c-0.519,5.464-2.767,18.744-3.908,24.865c-0.484,2.594-1.452,3.458-2.352,3.562
	c-2.006,0.173-3.528-1.314-5.464-2.594c-3.043-2.006-4.772-3.251-7.712-5.188c-3.424-2.248-1.21-3.493,0.761-5.499
	c0.519-0.519,9.372-8.577,9.545-9.303c0.024-0.11,0.021-0.224-0.009-0.333c-0.03-0.108-0.086-0.208-0.164-0.29
	c-0.208-0.173-0.484-0.104-0.726-0.069c-0.311,0.069-5.153,3.285-14.594,9.649c-1.383,0.934-2.628,1.418-3.735,1.383
	c-1.245-0.035-3.597-0.692-5.36-1.28c-2.179-0.692-3.873-1.072-3.735-2.283c0.069-0.622,0.934-1.245,2.559-1.902
	c10.098-4.392,16.808-7.297,20.162-8.68c9.614-4.012,11.585-4.703,12.9-4.703c0.277,0,0.934,0.069,1.349,0.415
	c0.346,0.277,0.45,0.657,0.484,0.934C50.595,22.41,50.665,23.032,50.63,23.517z"/>
</svg>
