<?xml version="1.0" encoding="utf-8"?>
<!-- Generator: Adobe Illustrator 24.3.0, SVG Export Plug-In . SVG Version: 6.00 Build 0)  -->
<svg version="1.1" id="Layer_1" xmlns="http://www.w3.org/2000/svg" xmlns:xlink="http://www.w3.org/1999/xlink" x="0px" y="0px"
	 viewBox="0 0 85.6 96.257" style="enable-background:new 0 0 85.6 96.257;" xml:space="preserve">
<style type="text/css">
	.st0{fill:url(#SVGID_1_);}
</style>
<linearGradient id="SVGID_1_" gradientUnits="userSpaceOnUse" x1="0" y1="51.0175" x2="85.6" y2="51.0175" gradientTransform="matrix(1 0 0 -1 0 99.146)">
	<stop  offset="0" style="stop-color:#9206CB"/>
	<stop  offset="1" style="stop-color:#FD287E"/>
</linearGradient>
<path class="st0" d="M80.25,0h-10.7c-1.419,0-2.78,0.564-3.783,1.567C64.764,2.57,64.2,3.931,64.2,5.35v90.907h21.4V5.35
	c0-1.419-0.564-2.78-1.567-3.783C83.03,0.564,81.669,0,80.25,0z M48.15,32.1h-10.7c-1.419,0-2.78,0.564-3.783,1.567
	S32.1,36.031,32.1,37.45v58.807h21.4V37.45c0-1.419-0.564-2.78-1.567-3.783C50.93,32.664,49.569,32.1,48.15,32.1z M16.05,64.2H5.35
	c-1.419,0-2.78,0.564-3.783,1.567S0,68.131,0,69.55v26.707h21.4V69.55c0-1.419-0.564-2.78-1.567-3.783
	C18.83,64.764,17.469,64.2,16.05,64.2z"/>
</svg>
