<?xml version="1.0" encoding="utf-8"?>
<!-- Generator: Adobe Illustrator 24.3.0, SVG Export Plug-In . SVG Version: 6.00 Build 0)  -->
<svg version="1.1" id="Layer_1" xmlns="http://www.w3.org/2000/svg" xmlns:xlink="http://www.w3.org/1999/xlink" x="0px" y="0px"
	 viewBox="0 0 93.625 80.25" style="enable-background:new 0 0 93.625 80.25;" xml:space="preserve">
<style type="text/css">
	.st0{fill:url(#SVGID_1_);}
</style>
<linearGradient id="SVGID_1_" gradientUnits="userSpaceOnUse" x1="0" y1="42.9712" x2="93.6246" y2="42.9712" gradientTransform="matrix(1 0 0 -1 0 83.0962)">
	<stop  offset="0" style="stop-color:#9206CB"/>
	<stop  offset="1" style="stop-color:#FD287E"/>
</linearGradient>
<path class="st0" d="M80.25,0H13.375C9.829,0.004,6.429,1.414,3.922,3.922C1.414,6.429,0.004,9.829,0,13.375v53.5
	c0.004,3.546,1.414,6.946,3.922,9.453c2.507,2.507,5.907,3.918,9.453,3.922H80.25c3.546-0.004,6.946-1.414,9.453-3.922
	c2.507-2.507,3.918-5.907,3.921-9.453v-53.5c-0.003-3.546-1.414-6.946-3.921-9.453C87.196,1.414,83.796,0.004,80.25,0z
	 M63.531,13.375c1.984,0,3.923,0.588,5.573,1.691c1.65,1.102,2.935,2.669,3.695,4.502c0.759,1.833,0.958,3.85,0.571,5.796
	c-0.387,1.946-1.342,3.733-2.745,5.136c-1.403,1.403-3.19,2.358-5.136,2.745c-1.946,0.387-3.963,0.188-5.796-0.571
	c-1.833-0.759-3.4-2.045-4.502-3.695c-1.102-1.65-1.691-3.589-1.691-5.573c0.003-2.66,1.061-5.209,2.941-7.09
	C58.322,14.436,60.872,13.378,63.531,13.375z M13.375,73.562c-1.774,0-3.475-0.705-4.729-1.959
	c-1.254-1.254-1.959-2.955-1.959-4.729V52.741l19.82-17.617c1.912-1.696,4.399-2.599,6.954-2.525
	c2.555,0.074,4.986,1.119,6.797,2.922l13.574,13.544L29.335,73.562H13.375z M86.937,66.875c0,1.774-0.704,3.475-1.959,4.729
	c-1.254,1.254-2.955,1.959-4.729,1.959H38.794l25.375-25.375c1.797-1.528,4.076-2.369,6.435-2.376
	c2.358-0.006,4.643,0.824,6.447,2.342l9.887,8.238V66.875z"/>
</svg>
