<?xml version="1.0" encoding="utf-8"?>
<!-- Generator: Adobe Illustrator 24.3.0, SVG Export Plug-In . SVG Version: 6.00 Build 0)  -->
<svg version="1.1" id="Layer_1" xmlns="http://www.w3.org/2000/svg" xmlns:xlink="http://www.w3.org/1999/xlink" x="0px" y="0px"
	 viewBox="0 0 89.17 89.167" style="enable-background:new 0 0 89.17 89.167;" xml:space="preserve">
<style type="text/css">
	.st0{fill-rule:evenodd;clip-rule:evenodd;fill:url(#SVGID_1_);}
</style>
<linearGradient id="SVGID_1_" gradientUnits="userSpaceOnUse" x1="0" y1="47.4294" x2="89.1702" y2="47.4294" gradientTransform="matrix(1 0 0 -1 0 92.0127)">
	<stop  offset="0" style="stop-color:#9206CB"/>
	<stop  offset="1" style="stop-color:#FD287E"/>
</linearGradient>
<path class="st0" d="M40.125,49.042c1.993,0,3.955,0.107,5.867,0.312c1.176,0.125,2.254,0.711,2.998,1.631
	c0.743,0.92,1.091,2.097,0.966,3.273c-0.125,1.176-0.711,2.254-1.631,2.997s-2.097,1.091-3.273,0.966
	c-1.605-0.174-3.255-0.263-4.926-0.263c-9.019,0-17.133,2.63-22.898,6.148c-2.885,1.757-5.06,3.665-6.465,5.448
	c-1.445,1.828-1.846,3.21-1.846,4.008c0,0.544,0.165,1.119,1.137,1.899c1.11,0.892,3.041,1.814,5.992,2.595
	c5.876,1.561,14.32,2.193,24.08,2.193l2.934-0.022c1.182-0.016,2.323,0.438,3.17,1.263c0.847,0.825,1.332,1.953,1.348,3.135
	c0.016,1.182-0.438,2.323-1.263,3.17c-0.825,0.847-1.952,1.333-3.135,1.348l-3.054,0.022c-9.938,0-19.327-0.624-26.362-2.488
	c-3.5-0.927-6.795-2.256-9.291-4.262C1.828,80.295,0,77.33,0,73.562c0-3.509,1.596-6.79,3.763-9.536
	c2.202-2.786,5.248-5.35,8.819-7.535C19.728,52.14,29.447,49.042,40.125,49.042z M82.479,56.581
	c4.084,2.381,6.804,7.089,6.688,12.43c-0.16,7-5.564,12.474-12.867,16.812c-1.525,0.91-3.139,1.859-4.967,1.859
	c-1.828,0-3.442-0.95-4.967-1.859c-7.303-4.338-12.706-9.817-12.862-16.808c-0.12-5.341,2.599-10.053,6.683-12.434
	c3.357-1.957,7.485-2.211,11.146-0.205C74.994,54.369,79.122,54.623,82.479,56.581z M76.804,63.906l-0.348,0.013
	c-0.524,0.08-1.012,0.312-1.404,0.669l-0.357,0.321c-1.717,1.739-4.449,1.864-6.313,0.375l-0.415-0.375
	c-0.727-0.736-1.338-0.941-1.757-0.99c-0.537-0.05-1.076,0.079-1.534,0.366c-1.181,0.687-2.309,2.318-2.26,4.525
	c0.045,2.006,1.605,5.038,7.579,8.783l1.338,0.811l0.41-0.245c6.741-4.004,8.457-7.245,8.507-9.345
	c0.045-2.216-1.079-3.843-2.26-4.53C77.63,64.065,77.224,63.935,76.804,63.906z M40.125,0c5.912,0,11.582,2.349,15.763,6.529
	s6.529,9.85,6.529,15.763s-2.348,11.582-6.529,15.763c-4.181,4.18-9.85,6.529-15.763,6.529s-11.582-2.349-15.763-6.529
	c-4.181-4.181-6.529-9.851-6.529-15.763s2.349-11.582,6.529-15.763S34.213,0,40.125,0z M40.125,8.917
	c-1.757,0-3.496,0.346-5.118,1.018c-1.623,0.672-3.097,1.657-4.339,2.899c-1.242,1.242-2.227,2.716-2.899,4.339
	c-0.672,1.623-1.018,3.362-1.018,5.118s0.346,3.496,1.018,5.118c0.672,1.623,1.657,3.097,2.899,4.339
	c1.242,1.242,2.716,2.227,4.339,2.899c1.623,0.672,3.362,1.018,5.118,1.018c3.547,0,6.949-1.409,9.458-3.917s3.917-5.91,3.917-9.458
	s-1.409-6.949-3.917-9.457S43.672,8.917,40.125,8.917z"/>
</svg>
